# xmcd
#
# Track frame offsets:
#	150
#	15351
#	28695
#	46122
#	63010
#
# Disc length: 1148 seconds
#
# Revision: 0
# Processed by: cddbd v1.5.2PL0 Copyright (c) Steve Scherf et al.
# Submitted via: audiograbber 1.83.01
#
DISCID=2c047a05
DTITLE=Mason Ashley - Into The Song
DYEAR=2015
DGENRE=country
TTITLE0=For A Moment
TTITLE1=Death Of Me
TTITLE2=Untied Ends
TTITLE3=Sometimes Romance
TTITLE4=Into The Song
EXTD=
EXTT0=
EXTT1=
EXTT2=
EXTT3=
EXTT4=
PLAYORDER=
